<?xml version="1.0" standalone="no"?>
<!DOCTYPE svg PUBLIC "-//W3C//DTD SVG 20010904//EN"
 "http://www.w3.org/TR/2001/REC-SVG-20010904/DTD/svg10.dtd">
<svg version="1.0" xmlns="http://www.w3.org/2000/svg"
 width="512.000000pt" height="512.000000pt" viewBox="0 0 512.000000 512.000000"
 preserveAspectRatio="xMidYMid meet">
<metadata>
Created by potrace 1.11, written by Peter Selinger 2001-2013
</metadata>
<g transform="translate(0.000000,512.000000) scale(0.100000,-0.100000)"
fill="#000000" stroke="none">
<path d="M2519 5115 c-2 -2 -47 -6 -99 -9 -52 -3 -121 -10 -153 -15 -77 -13
-269 -61 -282 -71 -5 -4 -28 -13 -50 -20 -45 -13 -177 -71 -185 -80 -3 -4 -20
-12 -37 -19 -18 -8 -33 -18 -33 -23 0 -5 -5 -6 -10 -3 -6 3 -13 0 -16 -8 -2
-7 -11 -14 -18 -14 -16 0 -166 -104 -166 -115 0 -4 -7 -8 -15 -8 -27 0 -285
-266 -345 -355 -70 -105 -93 -142 -130 -208 -23 -43 -38 -82 -34 -88 4 -7 3
-9 -3 -6 -6 4 -16 -5 -21 -21 -6 -15 -25 -63 -41 -107 -48 -123 -103 -361 -93
-399 2 -4 -1 -13 -6 -20 -10 -12 -9 -354 1 -431 21 -154 57 -327 95 -455 44
-147 75 -235 86 -242 6 -4 8 -8 4 -8 -7 0 12 -63 36 -115 30 -65 63 -142 76
-175 39 -98 260 -520 287 -548 7 -7 13 -17 13 -22 0 -12 249 -408 293 -465 9
-12 116 -164 137 -195 22 -32 161 -215 190 -251 8 -10 24 -30 35 -44 11 -15
28 -35 38 -46 9 -10 17 -23 17 -28 0 -5 3 -11 8 -13 4 -1 46 -50 93 -108 48
-58 95 -115 105 -126 11 -12 39 -46 64 -75 56 -67 151 -161 157 -155 2 2 16
-2 31 -10 20 -10 28 -11 34 -1 4 7 8 9 8 5 0 -4 13 -2 29 3 29 10 103 83 171
167 19 24 46 56 60 71 14 15 39 44 55 65 17 21 52 65 78 97 27 32 46 59 44 59
-3 0 10 17 29 38 51 56 64 72 64 77 0 3 8 13 18 23 25 28 52 62 52 67 0 3 24
36 53 74 28 37 59 78 67 91 8 12 34 48 58 81 23 32 42 61 42 65 0 3 6 11 13
18 13 15 14 15 92 134 30 46 55 85 55 87 0 3 8 14 18 25 9 11 15 23 14 27 -2
3 0 9 5 12 14 10 126 195 126 209 0 6 3 12 7 12 4 0 15 17 26 38 10 20 21 39
24 42 16 16 209 395 246 482 14 35 36 86 48 113 13 28 33 77 45 110 13 33 32
81 42 107 10 25 20 55 22 65 2 10 7 27 11 38 19 51 27 78 56 188 18 65 29 121
26 124 -3 4 -1 12 4 19 6 6 10 16 9 20 -1 5 0 16 4 24 37 97 55 488 31 665
-23 163 -44 255 -57 255 -4 0 -5 5 -2 11 4 5 2 22 -4 37 -29 74 -34 88 -37
104 -6 30 -105 230 -148 298 -102 165 -292 376 -431 480 -33 25 -62 47 -65 50
-12 12 -90 60 -102 62 -7 2 -15 5 -18 8 -16 17 -70 50 -93 55 -15 4 -27 11
-27 16 0 5 -5 9 -11 9 -5 0 -29 9 -53 19 -79 37 -146 61 -146 53 0 -4 -4 -1
-9 7 -5 8 -23 14 -40 15 -17 0 -31 4 -31 8 0 4 -8 7 -17 7 -10 0 -49 8 -88 19
-63 18 -114 25 -240 37 -91 8 -193 14 -196 10z"/>
</g>
</svg>
